<svg width="386" height="20" viewBox="0 0 386 20" fill="none" xmlns="http://www.w3.org/2000/svg">
<g filter="url(#filter0_d_1_121)">
<mask id="mask0_1_121" style="mask-type:alpha" maskUnits="userSpaceOnUse" x="1" y="0" width="385" height="12">
<rect x="1" width="385" height="12" fill="#C4C4C4"/>
</mask>
<g mask="url(#mask0_1_121)">
<path d="M58.8283 -2.53796L59.7692 -2.69614L57.9382 -2.92292L58.8159 -3.08892C59.6961 -3.0874 60.8364 -2.83866 61.457 -2.97083C61.5328 -3.09879 60.5744 -3.13986 60.3298 -3.24181C60.1134 -3.34631 59.9368 -3.45013 59.8021 -3.55202C60.2814 -3.55092 60.8084 -3.52628 61.3517 -3.47953C62.0825 -3.40318 62.7994 -3.36607 63.4231 -3.37229C64.6986 -3.35167 65.9308 -3.37224 67.3175 -3.36771L66.8561 -3.67567L68.6433 -3.60362C68.8327 -3.58016 69.0585 -3.61789 69.2446 -3.58887C70.7934 -3.34329 71.4488 -3.47711 72.1923 -3.58807C72.3448 -3.61678 72.5284 -3.63822 72.7384 -3.65182C74.8046 -3.593 76.6677 -3.24878 78.5284 -3.07207C78.8786 -3.02695 79.2145 -2.96904 79.5123 -2.90243C80.1595 -2.77295 80.8794 -2.66724 81.6062 -2.59496C82.3329 -2.52269 83.0433 -2.48616 83.6724 -2.48871C85.0636 -2.49157 86.6353 -2.40593 88.2355 -2.24008C88.7114 -2.18545 89.1875 -2.14941 89.6336 -2.13426C90.0798 -2.11911 90.4861 -2.12517 90.8266 -2.15207L91.9084 -1.97627C92.3774 -2.04761 92.9721 -2.08675 93.6563 -2.09131C94.3406 -2.09588 95.1001 -2.06577 95.889 -2.00283C96.7296 -1.93455 97.5834 -1.88852 98.4556 -1.81633C100.257 -1.67832 102.011 -1.59392 103.661 -1.56575C106.119 -1.48225 108.521 -1.4177 111.001 -1.31361C112.552 -1.26336 114.064 -1.23573 115.527 -1.23085C117.279 -1.21119 119.174 -1.11605 121.121 -0.950019V-0.950019C121.029 -0.794239 120.175 -0.840261 119.602 -0.845533C117.754 -0.871424 115.862 -0.938519 113.96 -0.988921C113.103 -1.00859 112.27 -1.01605 111.466 -1.01122C110.12 -1.01768 108.702 -1.05919 107.235 -1.13504C104.918 -1.2185 102.675 -1.25861 100.529 -1.25498C100.361 -1.24881 100.206 -1.23788 100.069 -1.22236C100.04 -1.20892 100.035 -1.19198 100.053 -1.17315C100.07 -1.15433 100.111 -1.13424 100.171 -1.11484C100.231 -1.09543 100.308 -1.07735 100.395 -1.06231C100.481 -1.04728 100.575 -1.0358 100.666 -1.02897C101.518 -0.9234 102.434 -0.810013 103.238 -0.794062C103.269 -0.79287 103.302 -0.790148 103.335 -0.786091C103.368 -0.782033 103.399 -0.776743 103.427 -0.770602C105.227 -0.54773 106.706 -0.585445 108.108 -0.549185C110.435 -0.451184 112.679 -0.405408 114.805 -0.412548C115.126 -0.412062 115.473 -0.399323 115.833 -0.374789C118.059 -0.27534 120.141 -0.264217 121.981 -0.341924C122.738 -0.36161 123.442 -0.405805 124.256 -0.406544C124.757 -0.409586 125.193 -0.437788 125.538 -0.489463C125.883 -0.541139 126.13 -0.615218 126.264 -0.707246C126.607 -0.658794 126.956 -0.615613 127.305 -0.57822C127.514 -0.556839 127.715 -0.551159 127.866 -0.562348C128.017 -0.573536 128.108 -0.600756 128.121 -0.638501C128.183 -0.744208 127.706 -0.797294 127.293 -0.842561C127.542 -0.865231 127.823 -0.878568 128.13 -0.88225C129.854 -0.906404 131.703 -0.877895 133.637 -0.797352C135.138 -0.700943 136.337 -0.779413 137.917 -0.643456C138.107 -0.619996 138.262 -0.65443 138.437 -0.662697C138.891 -0.706236 139.458 -0.716022 140.087 -0.6912C140.716 -0.666377 141.388 -0.607696 142.046 -0.520244C142.865 -0.759165 144.635 -0.486219 145.942 -0.461689C146.345 -0.340185 145.883 -0.361546 145.863 -0.328164C145.843 -0.294783 145.863 -0.328172 145.705 -0.347722C144.4 -0.175652 142.612 -0.138131 140.593 -0.240434C140.219 -0.240009 139.863 -0.23217 139.528 -0.216993C139.021 -0.195511 138.449 -0.197656 137.838 -0.223334C137.169 -0.242193 136.556 -0.233236 136.026 -0.196896C135.721 -0.197487 135.463 -0.179283 135.276 -0.143957C135.09 -0.108631 134.98 -0.0573287 134.957 0.00518089C135.161 0.05337 135.386 0.097464 135.625 0.135712C136.873 0.28673 138.118 0.34924 139.114 0.310943C140.847 0.244959 142.91 0.30935 144.753 0.286823C145.999 0.277697 147.325 0.303692 148.706 0.36432C148.706 0.36432 148.67 0.425518 148.666 0.431082C148.83 0.457579 149.001 0.478838 149.172 0.493644C149.172 0.493644 149.172 0.493644 149.188 0.465826C149.112 0.439113 149.01 0.413982 148.892 0.393344L148.482 0.342511C148.761 0.329283 149.021 0.289898 149.312 0.313961C149.924 0.358668 150.51 0.377542 151.033 0.369461C151.556 0.361381 152.006 0.326508 152.356 0.266938C152.976 0.190591 153.747 0.155871 154.619 0.165021C155.287 0.156686 155.931 0.138772 156.548 0.111368C156.548 0.111368 156.588 0.0446112 156.88 0.00912892C156.603 -0.0346342 156.315 -0.0703697 156.028 -0.0964381C154.779 -0.161567 153.526 -0.221133 152.299 -0.265661C151.847 -0.27047 151.422 -0.26301 151.032 -0.243424C149.952 -0.220505 148.738 -0.253034 147.462 -0.339115C147.462 -0.339115 147.21 -0.370394 147.084 -0.386034C147.442 -0.532787 148.676 -0.38587 149.176 -0.485255C149.479 -0.483446 150.014 -0.470948 149.996 -0.497113C149.954 -0.532027 149.949 -0.564462 149.981 -0.592092C150.013 -0.619721 150.082 -0.641861 150.181 -0.656922C150.281 -0.671983 150.409 -0.679597 150.558 -0.67921C150.706 -0.678823 150.87 -0.670443 151.038 -0.654682C152.443 -0.569418 153.767 -0.545707 154.928 -0.585001C155.368 -0.584243 155.861 -0.558972 156.298 -0.55265C156.565 -0.545035 156.81 -0.54927 157.017 -0.565121C158.072 -0.681864 159.492 -0.690389 161.064 -0.589418C161.824 -0.553116 162.533 -0.548262 163.157 -0.575102C163.6 -0.579907 163.788 -0.496906 164.104 -0.457806L165.444 -0.375382L163.723 -0.272102C164.091 -0.0354179 164.383 0.0426251 164.984 0.0573705C165.862 0.0796379 166.716 0.0896979 167.542 0.0874877C168.153 0.0855424 168.658 0.0345702 169.485 0.125104C169.631 0.139871 169.772 0.144651 169.884 0.138641C170.853 0.0582667 172.02 0.0398204 173.305 0.0845619C173.97 -0.0659459 175.103 0.0803869 176.152 0.198291C176.49 0.0849194 175.877 0.0328772 175.511 -0.0362976C176.388 -0.0292168 177.272 -0.0332599 178.177 -0.0167055C178.449 -0.0227325 178.76 -0.0124231 179.086 0.0134103C179.412 0.0392437 179.743 0.0798934 180.054 0.132183C180.205 0.165969 180.388 0.191397 180.564 0.203187C180.74 0.214977 180.896 0.212226 180.999 0.195505C181.469 0.146192 182.221 0.191612 182.61 0.108314C182.748 0.0891568 182.945 0.0864825 183.166 0.100758C183.387 0.115034 183.618 0.145337 183.817 0.186233V0.186233C183.599 0.198992 183.405 0.219086 183.24 0.246069C182.645 0.333725 182.864 0.480187 183.619 0.69312C184.778 0.681409 185.962 0.684735 187.036 0.644603C187.635 0.608578 188.369 0.61984 189.155 0.677124C189.941 0.734407 190.748 0.835441 191.486 0.968863C191.753 1.02017 192.058 1.0557 192.339 1.06841C192.62 1.08112 192.858 1.07007 193.005 1.03745C193.096 0.999727 193.124 0.951984 193.087 0.898362L192.329 0.804525C192.329 0.804525 192.359 0.754452 192.366 0.743325L193.455 0.734912C194.031 0.734621 194.632 0.74937 195.177 0.745168C195.977 0.717224 196.891 0.7328 197.861 0.790929C198.756 0.850534 199.636 0.895588 200.492 0.925694C201.321 0.956683 201.922 0.857894 202.71 0.842118C203.307 0.830226 203.963 0.842935 204.654 0.879746C205.847 0.945035 206.942 0.945156 207.839 0.880097C208.885 1.23062 209.393 1.28761 210.364 1.1929L210.821 1.16584L210.946 1.24102L211.295 1.22449C211.947 1.20976 212.6 1.19504 213.281 1.18979C214.227 1.22232 215.25 1.30984 216.248 1.4438C216.437 1.46726 216.695 1.54697 216.861 1.60937C217.028 1.67178 217.39 1.86004 217.657 1.98259C217.366 2.07206 217.045 2.15761 216.814 2.26046C216.791 2.27803 216.793 2.29898 216.821 2.32163C216.848 2.34428 216.9 2.36799 216.972 2.39087C217.045 2.41374 217.135 2.43513 217.236 2.45333C217.338 2.47153 217.447 2.48602 217.556 2.49565C217.768 2.51639 217.978 2.53021 218.176 2.53656C219.151 2.5475 220.085 2.53937 220.969 2.51224C221.291 2.47398 221.733 2.47034 222.224 2.50192C222.715 2.5335 223.227 2.59848 223.678 2.68656C224.834 2.63368 226.178 2.6493 227.616 2.73233C229.137 2.68183 230.974 2.78396 232.395 2.67331C232.362 2.72895 232.509 2.82473 232.713 2.87992C233.037 2.96375 233.403 3.04144 233.797 3.1097L236.802 3.24297C236.914 3.3115 237.054 3.38087 237.221 3.45018C237.335 3.50493 237.534 3.55851 237.775 3.59955C238.017 3.64059 238.282 3.66588 238.514 3.67005C239.112 3.69036 239.613 3.64495 240.326 3.75713C239.228 3.86318 237.748 3.84909 236.148 3.71738C234.645 3.6172 233.199 3.56714 231.864 3.56904C231.424 3.56828 230.844 3.57413 230.707 3.63473C230.402 3.80599 229.605 3.77892 228.675 3.74733C227.944 3.71275 227.277 3.71663 226.727 3.75865C226.178 3.80068 225.763 3.87965 225.515 3.98907C225.453 4.09477 225.603 4.185 226.244 4.24651L228.911 4.49316C229.304 4.46145 229.676 4.42391 230.028 4.3807C230.619 4.32331 231.35 4.30756 232.163 4.33467C232.975 4.36178 233.848 4.43102 234.713 4.53701C235.155 4.59175 235.597 4.64649 235.918 4.62048C236.199 4.5906 236.458 4.55483 236.693 4.51343C236.74 4.48568 236.759 4.45374 236.749 4.41885C236.919 4.43507 237.089 4.45617 237.254 4.48141C238.57 4.77585 239.59 4.77075 240.516 4.69438C240.767 4.67168 240.958 4.63559 241.212 4.60733C241.466 4.57906 241.555 4.54238 241.786 4.55306C243.627 4.64962 244.157 4.32709 245.708 4.34004C245.783 4.32744 245.83 4.30861 245.844 4.28527C245.858 4.26194 245.838 4.23486 245.787 4.20652C245.677 4.18093 245.551 4.15893 245.418 4.14253C245.286 4.12613 245.152 4.11587 245.029 4.11268C244.315 4.07129 243.685 4.08398 243.246 4.14858C242.935 4.17498 242.605 4.19602 242.26 4.21157L240.706 3.7445C242.211 3.78732 243.634 3.78704 244.943 3.74367C245.228 3.71931 245.712 3.76127 246.114 3.76925L249.07 3.8129C249.678 3.81652 250.196 3.7433 251.043 3.91398C251.043 3.91398 251.603 3.94151 251.752 3.9182C251.902 3.8949 252.564 3.74995 252.959 3.65553C253.417 3.68245 254.052 3.75509 254.337 3.73074C254.836 3.67092 255.268 3.59423 255.625 3.50205L257.411 3.63364C257.409 3.75054 257.344 3.86051 257.216 3.96189C257.077 4.05966 257.082 4.17702 257.23 4.30437C257.379 4.43173 257.666 4.56546 258.07 4.69465L259.833 5.37885C260.121 5.42467 260.428 5.45551 260.712 5.46719C260.996 5.47887 261.243 5.47082 261.421 5.44413C262.18 5.3649 263.03 5.30296 263.788 5.22373C264.767 5.34494 264.515 5.54072 265.227 5.71245L267.531 5.99788C267.883 6.26238 268.241 6.51575 267.172 6.6043C266.96 6.61979 267.103 6.72114 266.909 6.76279C267.74 6.96129 268.654 7.02071 269.496 7.14297C269.828 7.2309 270.106 7.32397 270.316 7.41769C270.547 7.55882 271.014 7.70298 271.617 7.81904C272.221 7.9351 272.911 8.01375 273.54 8.03801C274.596 8.11232 275.676 8.22392 276.734 8.36782C277.095 8.41785 277.466 8.45431 277.822 8.47473C278.178 8.49515 278.511 8.49906 278.798 8.48619C279.821 8.46353 280.687 8.38562 281.34 8.25752C281.985 8.14881 282.855 8.09641 283.87 8.10508C285.607 8.32014 285.957 8.64419 287.007 8.9296L285.192 8.9616C285.127 9.07287 285.247 9.21317 284.503 9.2106C283.759 9.20803 284.136 9.3145 284.377 9.42201C284.462 9.4761 284.628 9.53173 284.847 9.5795C285.066 9.62726 285.324 9.66422 285.578 9.68412L287.123 9.82174C287.671 9.87411 288.201 9.89647 288.655 9.88637C289.109 9.87627 289.47 9.8341 289.698 9.76449C289.96 9.69838 290.321 9.65367 290.759 9.63308C291.317 9.57916 291.776 9.49896 292.119 9.39552L294.301 9.54623C294.394 9.44228 294.693 9.3694 295.149 9.3399C295.605 9.31039 296.189 9.32608 296.803 9.38432L298.273 9.47682C299.907 9.57774 300.266 9.54452 300.745 9.25146L298.784 8.72799C299.069 8.59011 299.344 8.46891 299.62 8.34772C299.131 8.17526 298.48 8.01215 297.731 7.87494C297.032 7.72751 296.314 7.58472 295.579 7.44712C294.781 7.30651 293.938 7.18425 292.948 7.02574C292.775 6.97446 292.524 6.88363 292.203 6.79611C291.882 6.71107 291.547 6.6277 291.199 6.54634C291.265 6.43507 291.324 6.33493 291.197 6.20576C291.807 6.24697 292.437 6.31906 293.031 6.41551C293.625 6.51197 294.163 6.62976 294.597 6.75826C294.67 6.78105 294.76 6.80246 294.86 6.82104C294.96 6.83961 295.068 6.85493 295.178 6.86594C296.249 6.9449 296.761 7.10985 297.285 7.3121C297.638 7.41549 298.093 7.50731 298.587 7.57481C299.534 7.69212 300.461 7.8428 301.367 7.97289C301.644 8.01623 301.932 8.05191 302.219 8.07845C303.166 8.16284 304.118 8.28084 305.029 8.42645C305.326 8.46346 305.611 8.51243 305.86 8.56928C306.11 8.62613 306.316 8.68919 306.462 8.75322C306.236 8.82336 306.115 8.9119 306.104 9.0135C306.065 9.08026 306.73 9.21636 307.044 9.31501C307.358 9.41365 306.742 9.36717 306.533 9.3771C305.674 9.39618 305.515 9.43617 306.029 9.65512C306.201 9.72396 306.315 9.79285 306.364 9.85749C306.413 9.92213 306.396 9.98116 306.315 10.0309C306.193 10.2367 305.821 10.4058 305.566 10.6071C305.962 10.7397 306.624 10.8814 306.696 11.0456C306.731 11.082 306.804 11.1206 306.91 11.1586C307.017 11.1965 307.154 11.2329 307.311 11.2651C307.727 11.3346 308.105 11.4177 308.416 11.508C308.726 11.5983 308.962 11.6933 309.104 11.7857C309.15 11.824 309.262 11.8645 309.418 11.8993C309.573 11.934 309.76 11.9604 309.942 11.9731C310.158 11.9887 310.352 11.9867 310.484 11.9674C310.615 11.948 310.673 11.913 310.647 11.8694C310.652 11.7874 310.624 11.702 310.561 11.6139C310.597 11.5527 310.634 11.4915 310.49 11.3901C311.138 11.4271 311.817 11.5012 312.455 11.6045C313.093 11.7077 313.664 11.836 314.108 11.9756C314.599 12.1199 315.051 12.2715 315.595 12.4404C315.483 12.6295 315.483 12.6295 316.64 12.964L322.779 13.1271L324.037 13.3486C325.21 13.5417 325.489 13.5284 326.226 13.4286L326.722 13.3348C327.764 13.4638 328.964 13.6124 329.615 13.3706C329.827 13.5282 329.965 13.5811 329.917 13.6051C329.606 13.8376 329.065 14.0349 328.317 14.1892C328.126 14.2253 327.992 14.2803 327.769 14.3125C327.052 14.4941 326.886 14.7747 327.304 15.097C327.512 15.2396 327.814 15.3856 328.2 15.5303C327.635 15.7312 326.887 15.8976 325.975 16.0252C325.201 16.1238 324.564 16.2559 324.082 16.4177C323.649 16.5809 323 16.7035 322.174 16.7786C321.754 16.8105 321.448 16.8735 321.286 16.9613C321.238 17.1989 321.349 17.4533 321.616 17.7188C321.667 17.7996 321.81 17.8869 322.035 17.9738C322.26 18.0607 322.56 18.1449 322.912 18.2197C322.912 18.2197 323.082 18.2766 323.163 18.3105C323.231 18.5983 322.977 18.8519 322.418 19.0543C322.326 19.1117 322.138 19.1532 321.875 19.1742C321.612 19.1953 321.283 19.1951 320.923 19.1738C320.164 19.1395 319.455 19.1353 318.721 19.116C317.93 19.0888 317.233 19.1102 316.704 19.1782C316.175 19.2461 315.833 19.3579 315.714 19.502C315.706 19.5427 315.683 19.5818 315.644 19.6188C315.622 19.6379 315.61 19.6584 315.608 19.68L317.294 20.1516L315.387 20.3393C315.275 20.5285 316.19 20.6419 316.649 20.7823L316.365 20.8607C316 20.905 315.508 20.8202 315.063 20.771L314.621 20.7163L314.568 20.8053C314.293 20.9265 313.29 20.7903 312.898 20.8791C312.507 20.968 312.786 21.0683 313.373 21.1648C313.78 21.2366 314.218 21.2938 314.653 21.3322C315.089 21.3706 315.509 21.3891 315.885 21.3864C316.109 21.3769 316.294 21.3552 316.431 21.3226C317.222 21.184 318.097 21.0648 319.048 20.966C319.777 20.8772 320.69 20.8395 321.723 20.8554C322.026 20.8487 322.391 20.8697 322.755 20.9147C323.119 20.9598 323.458 21.026 323.712 21.1017V21.1017L324.247 21.1142C324.247 21.1142 324.539 21.1922 324.498 21.205C324.294 21.4362 324.531 21.7189 325.172 22.0111V22.0111L324.614 22.0376C323.817 22.0105 324.323 22.1866 324.203 22.2734C323.637 22.257 322.901 22.1837 322.633 22.2938L322.231 22.2858L322.388 22.3054L322.579 22.2693L323.329 22.4338C322.974 22.4615 322.716 22.4953 322.403 22.5102C322.229 22.5231 322.091 22.546 321.997 22.5774C321.903 22.6088 321.854 22.6481 321.854 22.693C321.855 22.762 321.761 22.8201 321.582 22.8617C321.403 22.9033 321.145 22.9271 320.832 22.9307C320.458 22.9322 320.244 23.0072 320.025 23.0339L320.977 23.4862C320.977 23.4862 320.503 23.4275 320.761 23.5072L320.794 23.4516L321.371 23.5648C321.787 23.6641 322.077 23.6881 322.323 23.617C322.568 23.5459 322.512 23.6405 322.63 23.6133C322.587 23.6856 322.32 23.7361 322.091 23.7794C321.826 23.8134 321.527 23.8385 321.199 23.8541C321.79 24.1722 321.819 24.1816 320.955 24.2658C320.092 24.35 320.39 24.4765 319.668 24.4945C318.945 24.5126 319.767 24.7278 320.25 24.7697C320.609 24.7973 320.974 24.8403 321.321 24.8957C321.669 24.9511 321.99 25.0176 322.263 25.0906L322.118 25.3354C321.905 25.3152 321.692 25.2888 321.486 25.2572C320.786 25.1228 320.15 24.9962 319.527 25.0743L319.824 25.2604L317.651 25.1525C317.707 25.2919 318.039 25.4507 318.575 25.5954V25.5954C318.494 25.6748 318.444 25.7585 318.426 25.8457C318.39 25.9069 318.176 25.8684 318.036 25.875C317.539 25.8853 317.13 25.9267 316.847 25.9958C316.564 26.0648 316.415 26.1594 316.412 26.2711C316.356 26.3656 317.121 26.5619 317.599 26.5554C318.793 26.5743 320.085 26.6471 321.403 26.7698C322.207 26.7857 322.32 26.537 323.643 26.7068C323.669 26.8216 323.5 26.9146 323.16 26.9717C322.821 27.0288 322.33 27.0468 321.761 27.0231C322.085 27.2782 323.875 27.3447 323.954 27.6113C323.508 27.5924 323.032 27.5481 322.571 27.4827C322.111 27.4173 321.682 27.3331 321.329 27.2383C321.252 27.215 321.157 27.1934 321.05 27.1757C320.944 27.158 320.83 27.1447 320.72 27.137C320.609 27.1293 320.506 27.1274 320.419 27.1316C320.332 27.1358 320.264 27.1459 320.222 27.161C320.47 27.2574 320.743 27.3688 321.054 27.473C321.365 27.5772 321.44 27.6223 321.664 27.6442C323.337 27.8514 324.133 28.2246 325.581 28.4696C325.959 28.5165 326.006 28.6657 325.678 28.6488C325.365 28.632 325.081 28.6342 324.86 28.6552C324.638 28.6762 324.486 28.7152 324.421 28.7679C324.178 28.8293 323.876 28.8782 323.522 28.9133C325.006 29.2963 326.776 29.6347 328.666 29.8968C329.023 29.9486 329.397 29.9801 329.73 29.9869C330.785 29.9872 331.904 30.0176 333.066 30.0774C333.477 30.0937 333.858 30.0922 334.186 30.0729C335.264 30.0272 336.12 30.1273 336.902 30.4092L338.195 30.8561C338.153 30.9284 337.935 31.009 337.768 31.1197L338.779 31.3584L346.492 30.8087L348.04 31.3409L350.261 31.3113C350.431 31.3267 350.602 31.3479 350.766 31.3739C351.215 31.531 351.566 31.682 352.053 31.8319C352.54 31.9818 353.411 32 354.018 32.1767C354.625 32.3534 355.232 32.3571 355.983 32.462C356.054 32.5988 355.981 32.7219 355.769 32.8236C355.7 32.9405 355.318 33.0127 355.252 33.1239C355.26 33.2364 355.118 33.3319 354.84 33.4017C354.562 33.4715 354.156 33.5135 353.66 33.5239C352.27 33.7633 350.594 33.9338 348.683 34.0302C348.515 34.0372 348.376 34.0534 348.274 34.0778C348.172 34.1021 348.11 34.1342 348.091 34.1719C348.094 34.281 347.966 34.3754 347.718 34.4479C347.47 34.5205 347.107 34.5695 346.656 34.5914C346.536 34.5958 346.446 34.6095 346.396 34.6308C346.225 34.6445 346.1 34.6708 346.034 34.7071C345.968 34.7435 345.963 34.7886 346.019 34.8381C346.074 34.8877 346.19 34.94 346.353 34.99C346.516 35.04 346.722 35.086 346.951 35.1235C347.283 35.1841 347.622 35.242 347.966 35.2971C347.947 35.3305 347.605 35.3359 347.654 35.3659C347.789 35.4619 347.821 35.5519 347.746 35.6286C347.671 35.7054 347.492 35.7668 347.223 35.8082L349.066 36.5859C350.185 36.6936 351.283 36.8763 352.151 37.0993C352.152 37.1358 352.102 37.1664 352.006 37.1881C351.91 37.2097 351.771 37.2216 351.603 37.2226C351.153 37.2385 350.728 37.2695 350.243 37.2871C349.947 37.3002 349.7 37.3291 349.518 37.3721C349.335 37.4151 349.221 37.4714 349.18 37.5376L350.262 37.8269C349.916 37.8974 349.658 37.9312 349.429 37.9745C349.559 38.0655 349.782 38.1595 350.082 38.2494C350.381 38.3393 350.748 38.4226 351.155 38.4929C351.265 38.5074 351.376 38.518 351.483 38.524C351.59 38.5301 351.69 38.5315 351.778 38.5282C352.617 38.429 353.597 38.6042 354.549 38.7699C355.502 38.9356 356.019 39.0355 356.722 39.1644L358.067 39.1817C358.407 39.2427 358.711 39.3144 358.954 39.3912C359.197 39.4679 359.372 39.5475 359.465 39.6236C359.393 39.746 358.755 39.679 358.375 39.6916C357.473 39.7678 356.287 39.7515 355.013 39.6455C354.698 39.6064 354.374 39.638 354.067 39.6417C353.404 39.657 352.767 39.6818 352.159 39.716C351.758 39.7479 351.384 39.7873 351.038 39.834C350.946 39.9898 352.4 40.1101 351.575 40.1871C351.859 40.2223 351.965 40.2713 352.111 40.2536C353.047 40.3547 353.969 40.4047 354.771 40.3978C356.309 40.3763 358.055 40.4473 359.867 40.6049C361.822 40.7683 363.698 40.8368 365.339 40.805C365.965 40.8032 366.663 40.8366 367.383 40.9028C368.232 40.9945 369.075 41.0521 369.858 41.072C370.117 41.0727 370.406 41.0883 370.7 41.1175C370.995 41.1468 371.288 41.1888 371.554 41.2403V41.2403C371.531 41.2792 371.277 41.3075 371.334 41.3264C372.144 41.6179 372.472 41.9213 373.719 42.2191C374.571 42.3246 375.55 42.4458 376.107 42.3059C376.665 42.1659 376.465 42.0456 375.356 41.6872C375.596 41.6821 375.886 41.6988 376.175 41.7345C376.463 41.7703 376.732 41.8227 376.934 41.8827L377.894 42.1509L378.758 42.4072C378.682 42.5352 378.623 42.6353 378.56 42.7411C378.461 42.8533 378.57 42.99 378.871 43.1319C379.052 43.2093 379.211 43.2868 379.344 43.3636C379.884 43.6707 380.041 43.961 379.796 44.2019C379.326 44.5483 378.672 44.867 377.842 45.1543C376.965 45.4338 376.484 45.7864 375.762 46.0911C375.393 46.2298 374.945 46.3541 374.423 46.4627C373.433 46.7044 372.348 46.9343 371.354 47.1815C370.36 47.4286 369.238 47.6062 368.135 47.8099C366.492 48.0517 364.716 48.2605 362.817 48.4352C361.642 48.5883 360.435 48.7374 359.348 48.9134C358.064 49.1116 356.556 49.2541 354.861 49.337C353.364 49.4363 352.026 49.5832 350.874 49.7748C350.753 49.7956 350.658 49.8219 350.59 49.8532C350.383 50.0486 349.801 50.1863 348.935 50.2453C348.987 50.3025 349.055 50.3607 349.136 50.4196C349.256 50.4898 349.282 50.5554 349.208 50.6081C349.135 50.6607 348.966 50.698 348.724 50.7149C348.031 50.7633 347.455 50.8455 347.021 50.9579C346.862 50.986 346.763 51.0271 346.733 51.0775C346.704 51.1279 346.743 51.1861 346.85 51.2472C346.944 51.31 346.951 51.3678 346.87 51.4131C346.788 51.4585 346.623 51.4892 346.394 51.5013C345.807 51.5608 345.179 51.6086 344.513 51.6446C343.096 51.7238 341.449 51.7228 339.669 51.6418C339.48 51.6183 339.289 51.6544 339.068 51.627C337.809 51.5362 336.641 51.5221 335.703 51.5865C334.604 51.6116 333.455 51.6066 332.295 51.6184C330.621 51.6105 329.076 51.6583 327.704 51.7604C326.136 51.6617 325.255 51.8333 323.931 51.8366C322.709 51.8542 321.551 51.8964 320.468 51.963C318.721 52.0512 316.981 52.1283 315.259 52.2316C313.644 52.2808 312.157 52.3749 310.823 52.5123C310.312 52.5743 309.387 52.4777 309.038 52.6077C308.69 52.7378 307.988 52.7224 307.42 52.7656L305.628 52.8722C305.32 52.8975 304.982 52.9136 304.617 52.9201C302.952 52.9288 301.798 53.1025 300.252 53.1379L300.094 53.1184C297.349 53.3765 294.208 53.5182 290.763 53.5393C288.751 53.6185 286.55 53.6147 284.415 53.6727C283.905 53.7888 282.703 53.6457 282.064 53.7517C281.425 53.8577 280.381 53.7883 279.558 53.8057C278.734 53.8231 277.929 53.8667 277.049 53.8652C276.284 53.8657 275.639 53.913 275.171 54.0029C274.103 54.1515 272.802 54.2388 271.325 54.261C269.37 54.2996 267.522 54.3873 265.534 54.368C265.563 54.4763 265.441 54.5684 265.181 54.6349C264.921 54.7014 264.533 54.7398 264.056 54.7463C261.931 54.7876 260.003 54.8952 257.849 54.9271L257.273 54.9274L250.831 54.9895C249.096 55.0015 247.424 55.0214 245.654 55.035C244.991 54.9529 244.975 55.0943 244.516 55.0673C244.388 54.9977 244.237 54.967 244.011 55.0048L243.961 55.0882L236.61 55.1989C233.732 55.2799 230.704 55.3042 227.553 55.2716C226.805 55.2798 226.108 55.3074 225.471 55.3541C224.88 55.3711 224.265 55.3787 223.628 55.3766C222.766 55.3556 221.924 55.345 221.105 55.3449C218.951 55.3767 216.691 55.3595 214.332 55.3362C211.974 55.3128 210.187 55.3543 208.088 55.3511C206.667 55.3482 205.252 55.3342 203.78 55.3013C203.078 55.2859 202.212 55.2026 201.485 55.1722C200.757 55.1418 200.52 55.1423 200.424 55.1901C200.107 55.3241 199.311 55.2374 198.675 55.2244C197.434 55.2021 197.258 55.1564 196.921 54.8101L198.443 54.7C198.817 54.6645 199.286 54.6583 199.806 54.6819C200.326 54.7055 200.88 54.7582 201.413 54.835C201.623 54.8678 201.843 54.8938 202.059 54.9114C202.276 54.929 202.485 54.9378 202.674 54.9374C204.21 54.9186 205.725 54.8792 207.201 54.8471L207.417 54.826L207.43 54.5172C207.235 54.4868 207.033 54.4618 206.831 54.4429L199.426 54.2425C197.727 54.1933 195.963 54.0823 194.296 54.037C192.628 53.9917 191.729 53.964 190.436 53.9172C189.89 53.8906 189.333 53.8556 188.769 53.8124C188.802 53.7827 188.821 53.751 188.826 53.7178C188.855 53.6678 188.895 53.601 188.655 53.5475C188.394 53.4719 188.045 53.4073 187.678 53.3667C187.333 53.3399 186.999 53.3247 186.688 53.3217C185.186 53.2958 183.471 53.1327 181.908 52.8671L181.363 53.0444C179.016 52.9448 176.634 52.8468 174.182 52.7522C173.691 52.7264 173.176 52.6769 172.675 52.6074C172.139 52.5409 171.645 52.4021 171.08 52.3262C170.522 52.2715 169.967 52.2289 169.427 52.1991C169.573 52.1535 169.766 52.117 169.999 52.0909C170.229 52.0817 170.396 52.0532 170.477 52.0095C170.558 51.9658 170.548 51.9092 170.448 51.8479C170.274 51.7426 170.197 51.6435 170.577 51.6309C170.928 51.6069 171.18 51.5549 171.302 51.4811C171.423 51.4073 171.41 51.3148 171.264 51.2144C171.2 51.1557 171.155 51.0982 171.129 51.0424V51.0424L170.971 51.0228C170.451 50.815 169.411 50.7399 168.664 50.5699C168.312 50.5206 167.947 50.4922 167.628 50.4892C166.802 50.4527 165.998 50.4367 165.145 50.3907C164.737 50.3696 164.31 50.3309 163.89 50.2772C163.29 50.2029 163.227 50.1951 162.879 49.925C163.42 49.9297 163.849 49.8894 164.093 49.8108C164.337 49.7322 164.382 49.6202 164.219 49.4938C163.773 49.2175 163.301 48.9263 161.283 48.73C161.941 48.7203 162.575 48.7011 163.181 48.6724C163.357 48.6663 163.489 48.646 163.559 48.6143C163.629 48.5826 163.634 48.541 163.573 48.4951C163.511 48.4492 163.387 48.4012 163.216 48.3574C163.046 48.3137 162.837 48.2763 162.618 48.2503C161.552 48.0941 160.441 47.9895 159.408 47.9484C158.538 47.9302 157.752 47.9404 156.736 47.9399L155.536 47.7913C155.556 47.7579 155.38 47.7122 155.424 47.6939C155.729 47.5226 156.066 47.3553 156.412 47.1712C155.859 47.0718 155.38 46.9519 155.029 46.825C154.679 46.6982 154.472 46.5696 154.431 46.4541C154.401 46.4192 154.409 46.3874 154.454 46.361C154.499 46.3346 154.58 46.3142 154.691 46.3012C155.007 46.2788 155.251 46.2361 155.403 46.1764C155.556 46.1166 155.614 46.0414 155.573 45.9565L154.64 45.6439C151.831 45.4208 149.073 45.2615 146.416 45.1688L144.017 45.0987C143.728 45.015 143.818 44.9784 144.09 44.9763C144.362 44.9742 145.128 44.9973 145.663 45.0098C146.125 45.0262 146.535 45.0154 146.854 44.9785C147.172 44.9416 147.389 44.8798 147.482 44.7992L146.677 44.4426C146.716 44.3759 146.772 44.2813 147.209 44.2876C147.508 44.2799 147.727 44.2463 147.833 44.1922C147.939 44.1381 147.925 44.0668 147.792 43.9896C147.772 43.9338 147.802 43.8829 147.881 43.8394C148.527 43.8358 149.17 43.8377 149.756 43.8208C150.029 43.8151 150.26 43.7945 150.432 43.7602C150.605 43.7259 150.715 43.6787 150.755 43.622C150.776 43.5666 150.725 43.5035 150.605 43.4378C150.485 43.3721 150.3 43.3057 150.064 43.2438C149.146 43.1673 148.305 43.1663 147.728 43.2411C147.522 43.2997 147.191 43.3317 146.779 43.3329C146.367 43.3341 145.893 43.3044 145.419 43.2478C144.877 43.1825 144.336 43.1538 143.894 43.1669C143.451 43.1799 143.136 43.2339 143.005 43.319C142.449 43.286 141.955 43.2607 141.469 43.2243C140.894 43.1784 140.352 43.1648 139.899 43.1852C139.175 43.1995 138.394 43.1911 137.576 43.1602C135.215 43.0828 132.852 43.0111 130.567 42.9789C129.962 42.9697 129.439 42.9945 128.841 42.9742C128.243 42.9539 127.77 43.0087 127.022 42.8982C126.88 42.881 126.737 42.87 126.604 42.866C126.471 42.862 126.352 42.8651 126.257 42.875C124.944 42.9624 123.404 42.9748 121.728 42.9114C119.433 42.8958 117.053 42.8519 114.755 42.8419C114.08 42.8505 113.443 42.8735 112.85 42.9106C112.399 42.9331 111.926 42.9483 111.434 42.9562C111.057 42.9632 110.696 42.9425 110.76 43.0638C110.823 43.1852 110.259 43.1092 109.933 43.0868C108.814 43.028 107.671 42.9483 106.516 42.8487C105.378 42.7405 104.262 42.6775 103.237 42.6636C102.496 42.6554 101.732 42.6863 100.78 42.5205C100.816 42.4593 100.853 42.3981 101.06 42.3342C100.283 42.1584 99.3972 42.0071 98.475 41.8929C97.5527 41.7787 96.6207 41.7048 95.7562 41.6773L94.564 41.3446C94.2705 41.3055 93.9708 41.277 93.6832 41.2609C93.3957 41.2448 93.1262 41.2414 92.8912 41.2508C92.7097 41.2557 92.4884 41.2433 92.268 41.216C92.0476 41.1887 91.843 41.1483 91.6916 41.1023C91.4652 41.0437 91.1887 40.9931 90.8967 40.957C90.6046 40.9208 90.3101 40.9006 90.0499 40.8989C89.2308 40.8627 88.3564 40.7792 87.5163 40.6568C87.2983 40.5851 87.1617 40.5109 87.1233 40.4436C87.085 40.3762 87.1466 40.3186 87.3005 40.2777C87.5487 40.2056 87.688 40.1137 87.7101 40.0077C87.7322 39.9016 87.6366 39.7835 87.429 39.6606C87.3227 39.5852 87.2872 39.5137 87.3246 39.4506C87.362 39.3875 87.4716 39.334 87.6466 39.2934C88.3001 39.1056 88.1253 39.0004 87.0561 38.6888C86.8825 38.6369 86.6731 38.5883 86.4413 38.5462C86.2096 38.5042 85.9605 38.4695 85.7099 38.4444C85.1219 38.3937 84.5419 38.3559 83.9806 38.3318C83.6649 38.2927 83.3412 38.3242 82.9774 38.3091C81.1586 38.2331 80.8924 38.1105 80.3034 37.8465L79.8741 37.656C79.0779 37.5016 78.2072 37.3735 77.3246 37.2807C76.442 37.1879 75.5696 37.1328 74.7702 37.1194C74.4524 37.1184 74.0871 37.092 73.7302 37.0443C72.5688 36.8985 71.3927 36.7976 70.2797 36.7483C69.5861 36.7206 68.8385 36.6488 68.1266 36.5415C67.4147 36.4343 66.7687 36.2962 66.2664 36.1438C65.8152 36.0065 65.2249 35.8833 64.5777 35.7913C63.82 35.6975 63.7498 35.5873 64.1729 35.5023C64.596 35.4174 65.3047 35.308 65.9337 35.2187C66.1526 35.1884 66.2882 35.139 66.3254 35.0762C66.3627 35.0133 66.3001 34.9394 66.1447 34.8627C66.0449 34.7314 66.0276 34.6068 66.0932 34.492C66.1283 34.4443 66.1041 34.3896 66.0222 34.3315C65.9404 34.2735 65.8028 34.2135 65.6187 34.1557C65.4346 34.0978 65.2084 34.0433 64.9552 33.996C64.702 33.9486 64.4277 33.9095 64.1509 33.8812C62.9828 33.7365 61.8463 33.5957 60.6551 33.49C60.1559 33.4402 59.6572 33.3784 59.1713 33.3062C58.1766 33.1277 57.1125 32.9797 56.0407 32.8707C55.532 32.822 55.0347 32.7368 54.6563 32.6336C53.463 32.3555 52.3635 32.0631 51.3776 31.7617C51.14 31.6682 50.8291 31.577 50.4643 31.4938C50.0996 31.4106 49.6889 31.3372 49.2581 31.2782C48.9109 31.2352 48.6282 31.1405 48.3605 31.0775C48.166 30.9316 48.1452 30.7966 48.3001 30.6852C48.4551 30.5738 48.7806 30.4897 49.2462 30.4407C49.6877 30.3819 50.1009 30.3136 50.4825 30.2415C50.9426 30.1831 51.4895 30.1481 52.103 30.1376C52.8295 30.1063 53.3668 30.0167 53.6447 29.8806C51.6557 29.6343 49.7643 29.2806 48.021 29.3633L46.6964 29.1395C46.7491 29.0505 46.7953 28.9726 46.8381 28.9003C47.1532 28.7686 47.2516 28.6026 47.125 28.4163C47.0206 28.3261 47.0301 28.2441 47.1523 28.1785C47.2745 28.1129 47.5051 28.066 47.8209 28.0426C49.6915 27.8025 51.8547 27.6404 53.6088 27.368C54.1588 27.3169 54.8027 27.2936 55.5133 27.2993C56.2008 27.2829 56.172 27.1599 55.3809 27.0082C54.9368 26.9289 54.4842 26.8529 54.0247 26.7805C51.9986 26.7684 51.1732 27.132 48.8611 27.0308L47.7895 26.5517C47.4997 26.5443 47.2184 26.5414 46.9475 26.543L43.0706 26.7376C42.7477 26.7474 42.4963 26.7807 42.3451 26.8337C42.1939 26.8868 42.1488 26.9575 42.215 27.0378C42.2412 27.136 42.1878 27.2261 42.0567 27.3048C41.9722 27.3599 42.0263 27.4332 42.2071 27.5086C42.6147 27.6785 42.0917 27.7033 41.7614 27.746C41.677 27.7502 41.5797 27.7497 41.475 27.7447C41.3704 27.7396 41.2606 27.7301 41.1519 27.7167C41.0432 27.7032 40.9379 27.6861 40.842 27.6663C40.7462 27.6465 40.6616 27.6244 40.5934 27.6013C40.0114 27.4397 39.5024 27.2691 38.9304 27.0908C39.3365 26.9201 38.8587 26.64 39.4924 26.4856C39.5633 26.4547 39.5916 26.4171 39.5757 26.3751C39.5599 26.3331 39.5 26.2875 39.4 26.2412C39.1419 26.1217 39.019 26.0051 39.0437 25.9033C39.0683 25.8015 39.2396 25.7181 39.5403 25.6614L39.5766 25.6002C38.7835 25.3945 38.9936 25.2115 38.6822 24.9938L37.9193 24.8515C36.0213 24.5089 36.018 24.5145 34.3839 24.5271C34.0545 24.3967 34.473 24.3769 34.7868 24.362L37.4151 24.2157C39.1335 24.118 40.9018 24.0504 42.8214 24.0134C44.741 23.9765 46.8811 23.8533 48.8652 23.7647C48.9655 23.7578 49.0423 23.7442 49.089 23.7251C49.1357 23.7059 49.151 23.6817 49.1338 23.6546C49.0549 23.6252 48.9516 23.5969 48.8317 23.5717C48.7117 23.5465 48.5781 23.5251 48.4406 23.509C47.8092 23.4308 47.1613 23.3804 46.4885 23.315L45.2341 23.2015L44.8482 23.0522C44.5971 22.9613 44.4255 22.8505 44.0914 22.7852C43.8161 22.7366 43.5172 22.6996 43.2259 22.6782C42.9346 22.6569 42.6616 22.6518 42.4352 22.6637C41.8076 22.6935 41.2398 22.7366 40.6405 22.7759C40.0411 22.8151 39.7108 22.8578 39.1911 22.877C38.1352 22.8858 37.1147 22.9089 36.1341 22.9463C35.3082 23.0348 34.5442 23.1397 33.8471 23.2602C33.4122 23.3079 33.0055 23.365 32.2629 23.3029C31.9106 23.2466 31.6067 23.1726 31.4051 23.0941C31.2035 23.0155 31.1173 22.9375 31.1617 22.8739C31.2015 22.824 31.3143 22.7846 31.4894 22.7592C31.6645 22.7339 31.8961 22.7235 32.1624 22.7291C32.9078 22.7199 33.5971 22.6891 34.2164 22.6371C35.0783 22.543 36.1276 22.5024 37.303 22.5178C37.7016 22.5313 37.9688 22.4808 38.3175 22.4643C38.6662 22.4477 38.9616 22.4067 39.3503 22.4369C40.558 22.5148 41.137 22.3954 41.8607 22.3179C42.1057 22.2835 42.2575 22.2279 42.2994 22.1572C42.3413 22.0865 42.2717 22.0035 42.0982 21.9173C41.7641 21.7456 41.3555 21.5729 40.8787 21.402C40.6333 21.3179 40.3189 21.2381 39.9601 21.1689C39.6014 21.0996 39.208 21.0426 38.811 21.0025C38.5733 20.8974 38.4466 20.794 38.4421 20.7017C38.4377 20.6093 38.5557 20.5311 38.7855 20.4739C39.3712 20.3433 39.8904 20.2106 41.2026 20.2835C41.8196 20.3114 42.4002 20.3167 42.9215 20.2993C44.0776 20.2755 45.4112 20.3277 46.7966 20.4508C47.155 20.4824 47.5073 20.5039 47.8431 20.5147C50.2381 20.5904 52.5201 20.6282 54.8086 20.6548C56.021 20.6676 57.2432 20.6638 58.5089 20.7011C61.4769 20.782 64.1786 20.7404 67.0434 20.7668C68.5438 20.7803 69.8868 20.7258 71.0019 20.6061C71.219 20.5659 71.4055 20.5191 71.5592 20.4661C70.8203 20.327 70.0086 20.2169 69.202 20.1462C68.3953 20.0756 67.6207 20.0469 66.9524 20.0627C66.585 20.1017 66.1101 20.1088 65.5807 20.0833C65.0513 20.0578 64.4882 20.0007 63.9542 19.9183V19.9183L65.5068 19.8718C66.5363 19.85 67.5908 19.8432 68.5921 19.812C70.1828 19.7581 71.6571 19.672 73.3043 19.6371C74.6343 19.6051 75.8243 19.5231 76.8372 19.3939C77.569 19.2996 78.4047 19.2328 79.3274 19.1947C79.9833 19.1744 79.9833 19.1744 80.4026 18.9815C80.07 18.8567 79.6398 18.8392 79.2346 18.8368C76.8052 18.7583 74.4932 18.7445 72.3458 18.7958C71.2623 18.8004 70.3011 18.8533 69.5084 18.952C69.3142 18.9937 68.8176 18.9739 68.419 18.9604C67.1693 18.9398 65.975 18.9458 64.8502 18.9783C63.2952 19.0324 61.5633 19.0195 59.7218 18.9403C59.3726 18.8433 59.7746 18.8513 59.7943 18.8179C61.2206 18.7556 62.6186 18.6839 64.0732 18.6312C64.4708 18.6124 64.8958 18.6031 65.3435 18.6034C67.0147 18.6361 68.4074 18.5455 69.3264 18.3442C69.3725 18.2663 69.9771 18.2755 70.2442 18.225C70.3756 18.1813 70.4632 18.1298 70.5042 18.0721C70.115 17.9283 69.6749 17.9275 69.3362 17.9274C68.3531 17.9434 67.4073 17.9739 66.5035 18.0185C65.6632 18.061 64.7332 18.0723 63.7385 18.0523C63.0044 18.033 62.3768 18.0628 61.6361 18.0546C61.2343 18.0375 60.8184 18.0101 60.3968 17.9728C60.8662 17.8726 61.5042 17.811 62.266 17.7923C62.8437 17.7324 63.566 17.7144 63.6583 17.5586C63.3855 17.4472 63.0816 17.4454 62.8375 17.4569C62.3294 17.4565 61.8387 17.4635 61.3679 17.478C60.3695 17.5096 59.2886 17.5101 58.1478 17.4793C57.547 17.4678 56.977 17.4712 56.4473 17.4896C55.2467 17.5141 54.0961 17.5687 52.9968 17.5938C50.745 17.6195 48.6912 17.7115 46.5275 17.76C46.046 17.772 45.6143 17.8141 44.9796 17.7415C44.3449 17.6688 44.3167 17.6594 44.2417 17.6142C44.0641 17.539 44.0103 17.466 44.0914 17.4105C44.2173 17.3586 44.4626 17.3297 44.7835 17.329C46.7177 17.2465 48.5523 17.1306 50.2757 16.982C51.0341 16.9523 51.6986 16.8916 52.2461 16.8021C52.6803 16.7404 53.1953 16.6996 53.775 16.6809C54.6182 16.6363 55.4972 16.6037 56.4085 16.5831C56.8325 16.572 57.193 16.539 57.4689 16.4859C57.7447 16.4329 57.9303 16.361 58.0147 16.2744L56.8975 15.9867C56.722 15.9733 56.5479 15.9617 56.3759 15.952L47.1034 16.1592L46.1851 16.1649C45.1787 16.1477 44.9327 16.1053 43.978 15.7721C46.1568 15.6937 47.8695 15.4652 48.9456 15.1093C48.687 15.0711 48.4219 15.0382 48.1564 15.0116C46.4152 14.9274 44.7692 14.9051 43.2819 14.9454C42.3984 14.9494 41.49 14.9384 40.5783 14.933C40.8449 14.7689 41.8664 14.8178 42.5322 14.7808C44.123 14.723 45.5297 14.6034 46.7074 14.426C47.1134 14.3569 47.6214 14.3127 48.208 14.2954C48.7951 14.2894 49.2855 14.2476 49.6366 14.1734C49.9877 14.0993 50.1887 13.9951 50.2222 13.87C50.2775 13.7567 50.3967 13.6515 50.578 13.5558C50.2573 13.42 49.7481 13.29 49.1459 13.1901C48.5437 13.0902 47.89 13.0274 47.3074 13.0133C46.0636 12.9574 44.7735 12.8659 43.47 12.7411C42.8207 12.6782 42.184 12.642 41.6013 12.6351C41.0874 12.6297 40.5032 12.5843 39.938 12.5056C39.3728 12.427 38.8574 12.3195 38.4706 12.1996C37.9485 12.0513 37.4612 11.9014 36.974 11.7514C36.4868 11.6015 35.9214 11.4121 35.3526 11.2281C34.8511 11.1994 34.3628 11.1809 33.8943 11.1729C33.5298 11.1797 33.1044 11.1596 32.6684 11.1152C32.2324 11.0707 31.8039 11.0036 31.4336 10.9219V10.9219C31.6508 10.8413 31.8964 10.7702 32.155 10.6768C31.8 10.5535 31.5426 10.4278 31.3984 10.3073C31.2543 10.1868 31.2265 10.074 31.3167 9.97582C31.3694 9.8868 30.9835 9.73747 30.8501 9.61943C30.6784 9.51767 30.6462 9.42271 30.7576 9.34699C30.869 9.27127 31.1188 9.21833 31.4744 9.19511C31.9154 9.15226 32.2743 9.08773 32.5364 9.00416C32.6231 8.98247 32.6672 8.95276 32.6648 8.91775C32.6623 8.88274 32.6133 8.84355 32.5223 8.80376C32.4312 8.76398 32.3011 8.72486 32.1437 8.68999C31.9863 8.65512 31.8067 8.62561 31.6213 8.60417C31.0534 8.54337 30.4894 8.50396 29.9617 8.48821C29.0527 8.45922 28.1824 8.44102 27.3509 8.43359C26.4313 8.4224 25.4083 8.35339 24.3857 8.23355C23.4701 8.12016 22.6493 8.01849 22.2016 7.80181C21.754 7.58512 21.0382 7.59202 20.4878 7.43428C20.797 7.29208 21.3465 7.19329 22.0809 7.14786C22.5615 7.13164 22.9626 7.08908 23.2586 7.02289C23.5546 6.95671 23.7389 6.86837 23.7997 6.76354L22.1288 6.32369C20.7944 6.11661 20.0561 6.27599 18.6142 6.19297L20.0998 6.03059C20.1297 6.01455 20.1409 5.9957 20.1328 5.97496C19.9886 5.64655 19.7591 5.57633 18.2404 5.39421L17.3881 5.28864L16.039 5.16336C15.8229 5.09605 15.6735 5.02587 15.6056 4.95982C15.5377 4.89377 15.5537 4.83417 15.6521 4.78699C15.8498 4.70763 15.9098 4.60623 15.8269 4.49212C15.696 4.41652 15.6852 4.34684 15.7963 4.29515C15.9074 4.24345 16.1334 4.21302 16.4351 4.20914C16.6759 4.20312 16.6938 4.11576 16.8248 4.06629C16.9549 3.99811 17.1777 3.94579 17.4778 3.91289C17.778 3.87999 18.1485 3.86728 18.5643 3.87564C19.79 3.88247 20.9415 3.85687 21.9983 3.79931L21.8088 3.77585C22.9103 3.82639 23.9401 3.83251 24.848 3.79394C25.7578 3.74539 26.9255 3.77653 27.8919 3.74693C28.6786 3.75372 29.2776 3.68652 29.5617 3.55959C29.8368 3.4384 30.8367 3.46668 31.6024 3.48985C32.0559 3.50484 32.4943 3.51119 32.9128 3.50883C33.4745 3.4814 34.1768 3.50725 34.9026 3.58209C35.1204 3.60509 35.3349 3.61726 35.5256 3.61743C37.3707 3.64889 39.2125 3.6859 41.0327 3.70232C41.4529 3.69286 41.9455 3.71452 42.4529 3.76474C42.6661 3.78654 42.8737 3.79558 43.0476 3.79062C45.9237 3.74074 49.1692 3.868 51.9888 3.79918C52.3305 3.78292 52.7088 3.77954 53.1131 3.78913C54.0214 3.82956 54.8101 3.80354 55.3596 3.71502C55.6561 3.66795 56.0362 3.64201 56.4757 3.63885C56.9151 3.6357 57.4043 3.65541 57.912 3.69672C58.7569 3.75142 59.5378 3.75735 60.1723 3.71389C61.4093 3.67374 62.7102 3.65723 64.0648 3.66449C64.4798 3.67152 64.8446 3.65591 65.131 3.61889C65.4174 3.58186 65.6176 3.52441 65.7162 3.45098C65.3835 3.32617 65.0198 3.31098 64.6744 3.32196C63.3358 3.29352 62.0004 3.25951 60.6867 3.24611C59.5109 3.20782 58.3827 3.19612 57.3187 3.21117C56.7904 3.22815 56.1311 3.18944 55.4848 3.10348C54.6927 2.99462 53.8769 2.94054 53.2023 2.95217C52.7022 2.95506 52.1743 2.94568 51.6262 2.92418C51.2754 2.89824 50.9159 2.85371 50.5844 2.79515C50.4529 2.76972 50.3098 2.74833 50.1641 2.73236C50.0185 2.71639 49.8737 2.7062 49.7389 2.70242C49.604 2.69864 49.4819 2.70136 49.3807 2.71041C49.2796 2.71946 49.2014 2.73464 49.1511 2.75498C48.6437 2.92504 47.509 2.83826 46.5374 2.81945C45.0814 2.53162 43.9978 2.70198 42.637 2.53941C42.5294 2.52863 42.4233 2.5221 42.3254 2.52024C42.2274 2.51838 42.1396 2.52121 42.0673 2.52857C39.4338 2.62642 36.3645 2.54487 33.5996 2.57866C33.2947 2.5836 32.9408 2.56667 32.5781 2.52978C30.2078 2.28564 27.9289 2.21632 26.1869 2.3354C25.9749 2.34612 25.7338 2.34658 25.4745 2.33675C24.2834 2.23972 23.1444 2.20103 22.1526 2.22392C20.5981 2.21653 19.1036 2.22252 17.5241 2.20009C16.4354 2.16818 15.4803 2.20227 14.7545 2.29898C14.7314 2.33793 14.2479 2.29596 13.8776 2.2919C13.6646 2.19385 13.4799 2.10529 13.2603 2.01838C13.064 1.91085 12.77 1.80203 12.3982 1.69932C12.0264 1.5966 11.5856 1.50239 11.1055 1.42304C10.2847 1.32138 10.2026 1.17386 10.777 1.11958C12.2574 0.940019 14.1189 0.866526 16.2248 0.904496C17.9851 0.90753 19.7771 0.914483 21.5624 0.932555C22.6038 0.948059 23.7015 0.982496 24.7146 0.988526C25.0564 1.00178 25.4076 1.0213 25.7644 1.04689C26.2023 1.084 26.6274 1.10421 27.0169 1.10646C28.2675 1.07521 29.6632 1.10243 31.1374 1.18682C31.6774 1.20522 32.1959 1.21142 32.6852 1.20534C33.8429 1.18243 35.0979 1.19928 36.417 1.25546C37.2369 1.28714 38.0319 1.3037 38.7937 1.30498C39.0628 1.30844 39.2819 1.28183 39.541 1.30198C41.8221 1.51283 43.4373 1.36053 45.4902 1.44161C46.488 1.46422 47.4413 1.46429 48.3367 1.44181C50.084 1.44289 51.8801 1.46601 53.7176 1.51106C56.1475 1.58508 58.3993 1.5594 60.7194 1.58996C61.1775 1.59638 61.6198 1.59529 62.043 1.58668C64.102 1.5298 66.3384 1.54186 68.6976 1.62257C69.2333 1.63423 69.7144 1.61997 70.1109 1.5807C70.5073 1.54143 70.8106 1.47798 71.0016 1.39434C71.0824 1.33693 71.0301 1.26237 70.8546 1.18503C70.5634 1.08626 70.2346 0.989492 69.8735 0.896311L56.741 0.583635C56.1894 0.567307 55.6515 0.558517 55.1301 0.557302C53.5963 0.554584 52.0154 0.530259 50.3951 0.484449C48.794 0.441419 47.2645 0.449058 45.7134 0.436103C45.2565 0.431763 44.7875 0.421524 44.3083 0.405414C41.0696 0.277911 37.9115 0.200033 34.8562 0.172341C33.5709 0.168411 32.1823 0.109895 30.8719 0.0909284C29.5615 0.0719618 27.7696 0.0650172 26.2151 0.0576252L21.4025 0.0587603C20.4559 0.0549865 19.5342 0.0662461 18.6159 0.0719458C17.5015 -0.334816 17.1174 -0.430158 15.6303 -0.608366C15.1216 -0.674103 14.6041 -0.713333 14.1386 -0.721461C12.6624 -0.689305 10.8101 -0.82316 9.4102 -0.805439C8.56549 -0.81418 7.84871 -0.768993 7.33325 -0.674502C6.88579 -0.600345 6.37412 -0.541666 5.80613 -0.499353C4.25021 -0.847328 4.11309 -1.07333 5.2835 -1.16128C5.6006 -1.18172 6.03739 -1.1754 6.26638 -1.2187C6.39776 -1.24507 6.57725 -1.26015 6.79054 -1.26276C7.00383 -1.26537 7.24501 -1.25543 7.49518 -1.23372C8.28472 -1.17678 9.02475 -1.16338 9.64101 -1.19489C10.221 -1.23659 10.9319 -1.23492 11.7052 -1.19005C12.2735 -1.11967 12.773 -1.21905 13.2644 -1.24776C13.7558 -1.27648 14.1591 -1.32805 14.9267 -1.2509C15.0673 -1.23554 15.2068 -1.22632 15.3346 -1.22394C15.4625 -1.22157 15.5752 -1.22611 15.6641 -1.2372C16.4885 -1.28689 17.4723 -1.28167 18.5356 -1.22197C20.1663 -1.16322 21.6963 -1.16102 23.0726 -1.21544C23.8964 -1.26305 24.5989 -1.34749 25.1524 -1.46546C25.3033 -1.50492 25.5273 -1.52858 25.803 -1.53417C27.1878 -1.50956 28.6913 -1.41692 30.2167 -1.26224C30.7914 -1.20026 31.3653 -1.15123 31.9262 -1.1162C33.079 -1.03839 34.194 -0.994789 35.2382 -0.986687C36.7554 -0.985402 38.3351 -0.955463 39.9633 -0.897142C40.968 -0.864669 41.9362 -0.852683 42.8563 -0.861316C43.802 -0.865386 44.8117 -0.840615 45.8625 -0.78758C46.9076 -0.744362 47.8285 -0.769263 48.5143 -0.85927C48.7402 -0.907771 48.9221 -0.965366 49.0566 -1.03098C47.5265 -1.24448 45.9441 -1.35299 44.6279 -1.33465C44.1279 -1.34879 43.7128 -1.33451 43.186 -1.41767L43.1695 -1.38985C43.0647 -1.3718 42.9065 -1.36755 42.7252 -1.37789C42.5438 -1.38824 42.352 -1.41246 42.1862 -1.44595V-1.44595C42.2488 -1.55166 42.3082 -1.6518 42.3511 -1.72413C43.3539 -1.71137 44.3276 -1.7124 45.2673 -1.72724C46.0593 -1.74858 47.1346 -1.56166 47.8201 -1.63202C49.1574 -1.54403 50.0088 -1.66552 51.208 -1.63046C52.4071 -1.59541 53.7279 -1.4796 54.9271 -1.44455C55.9735 -1.42531 56.9895 -1.42113 57.9695 -1.43202C58.3078 -1.44731 58.6977 -1.44373 59.1154 -1.42148C59.7026 -1.37963 60.2488 -1.37261 60.6913 -1.40125C61.1338 -1.42988 61.4547 -1.49301 61.6174 -1.58339C61.4642 -1.66805 61.2579 -1.77721 61.0199 -1.89029C61.4577 -1.98321 62.1225 -2.02233 62.9159 -2.00185L64.0369 -2.00633C64.3339 -2.00388 64.561 -2.029 64.6711 -2.07649C64.7813 -2.12399 64.7661 -2.19022 64.6286 -2.2615C62.5031 -2.62031 62.4248 -2.65986 60.8647 -2.42907L58.7934 -2.53632L58.8283 -2.53796ZM86.8451 -1.55232L86.6873 -1.57187L86.8451 -1.55232ZM344.978 36.623L344.942 36.6842L344.981 36.6174L345.328 36.6604L345.351 36.6215L344.978 36.623ZM294.557 9.799C294.067 9.73223 293.571 9.67085 293.074 9.61522C292.943 9.6066 292.822 9.60465 292.718 9.60954C292.615 9.61444 292.534 9.62602 292.481 9.64333C292.441 9.71009 292.719 9.75641 292.971 9.78769C293.29 9.82979 293.615 9.85655 293.914 9.8652C294.213 9.87384 294.474 9.86408 294.671 9.83689L294.956 9.81253L294.557 9.799ZM41.7375 26.0709C42.0607 26.0821 42.3671 26.0839 42.6493 26.0763C43.9012 26.0224 45.0998 25.9439 46.3833 25.8938C48.0028 25.7668 49.8637 25.715 51.8962 25.7405C52.6903 25.753 53.3611 25.7118 53.8305 25.6218C54.1114 25.5735 54.4741 25.5452 54.8962 25.5388L60.2696 25.3921C60.6017 25.3617 60.8889 25.319 61.1243 25.2651C60.6508 25.2064 60.3351 25.1673 60.1457 25.1439C59.7526 25.1373 59.4148 25.1551 59.1661 25.1957C58.8989 25.2645 58.4473 25.2917 57.9009 25.2719C57.3494 25.2556 56.8115 25.2468 56.29 25.2456C55.3052 25.249 54.3138 25.2636 53.3257 25.2726C52.9412 25.4639 51.8066 25.3771 50.835 25.3583L50.0844 25.3668C47.6309 25.466 45.2872 25.6024 43.0648 25.7754C42.6352 25.8047 42.2652 25.8514 41.966 25.9141C41.8533 25.9629 41.8172 26.0239 41.8605 26.0921L41.7027 26.0725L41.7375 26.0709ZM151.301 44.3585C151.897 44.3715 152.516 44.3983 153.152 44.4384C153.641 44.4793 154.119 44.5042 154.565 44.5119C157.068 44.5548 159.676 44.6538 162.354 44.8077C162.704 44.831 163.04 44.8424 163.35 44.8415L165.542 44.8025C166.233 44.7805 166.246 44.7583 165.743 44.4631C165.326 44.4058 164.904 44.3535 164.48 44.3067C164.228 44.2754 163.817 44.2246 163.721 44.2724C163.136 44.4029 162.068 44.3184 161.169 44.2907C158.568 44.2194 155.886 44.1141 153.26 44.0277C152.704 44.0066 152.167 43.9959 151.652 43.9958C151.332 43.9914 151.041 43.9997 150.79 44.0205C150.717 44.0226 150.655 44.0288 150.61 44.0386C150.565 44.0484 150.536 44.0617 150.527 44.0774C150.517 44.0932 150.527 44.1112 150.556 44.1302C150.584 44.1491 150.63 44.1686 150.691 44.1874C150.906 44.2531 151.154 44.316 151.428 44.3741L151.301 44.3585ZM170.355 1.51677L172.917 1.48178C173.224 1.47802 173.485 1.43863 173.814 1.45548C175.568 1.50887 177.193 1.494 178.618 1.4115C179.103 1.37783 179.671 1.3711 180.29 1.39167C182.186 1.45264 183.974 1.45515 185.606 1.39912C186.661 1.38788 187.648 1.35012 188.553 1.2864C188.623 1.2716 188.667 1.25152 188.681 1.22752C188.695 1.20352 188.68 1.17616 188.636 1.14731C188.624 1.12908 188.593 1.10947 188.545 1.08984C188.496 1.0702 188.432 1.051 188.355 1.03356C188.278 1.01613 188.192 1.00087 188.101 0.988832C188.01 0.976795 187.918 0.968263 187.83 0.963837C186.686 0.877585 185.601 0.847537 184.662 0.876132C183.792 0.910346 182.855 0.920357 181.866 0.90601C180.919 0.902236 180.277 1.0138 179.107 0.928672C178.613 0.90064 178.176 0.909868 177.872 0.954812C177.259 1.02931 176.404 1.03345 175.459 0.966505C174.893 0.932625 174.353 0.918096 173.858 0.923472C172.657 0.947963 171.51 0.996964 170.398 1.04431C170.047 1.05527 169.671 1.05678 169.277 1.04881L163.706 0.956098C162.368 0.927658 161.032 0.893654 159.719 0.880251C158.644 0.851148 157.644 0.860263 156.754 0.907273C155.805 0.956684 154.771 0.976744 153.669 0.967073C151.959 0.994113 150.258 1.00446 148.396 1.00082C147.209 1.00305 145.993 0.995823 144.753 0.97355C144.125 0.944883 143.592 0.968229 143.257 1.03909C143.053 1.09743 142.573 1.0499 142.174 1.03636C140.048 0.905869 138.054 0.874949 136.331 0.945756C136.111 0.957294 135.87 0.961471 135.612 0.958216C133.953 0.955784 132.234 0.939968 130.642 0.939793C130.222 0.945294 129.828 0.96039 129.463 0.984889C129.502 1.02486 129.613 1.06818 129.774 1.10586C129.935 1.14355 130.132 1.17271 130.326 1.1873C131.832 1.29896 133.286 1.35795 134.628 1.36179C136.86 1.34756 139.199 1.37954 141.62 1.45739C143.498 1.53586 145.21 1.51934 146.63 1.40905C147.739 1.32675 149.183 1.35771 150.712 1.49662C151.366 1.56296 152.002 1.58949 152.531 1.57258C153.04 1.5504 153.624 1.55578 154.25 1.5884C155.568 1.65044 156.836 1.67922 158.028 1.67417C159.194 1.65133 160.281 1.58895 161.479 1.57002C162.676 1.55109 164.499 1.56194 165.976 1.52978C167.452 1.49763 168.912 1.49329 170.355 1.51677ZM64.1825 -1.73747C64.3178 -1.56545 64.7965 -1.45838 65.3116 -1.41251C67.0871 -1.20883 68.8425 -1.12216 70.283 -1.16704C71.0611 -1.22964 72.0985 -1.20554 73.1912 -1.09948C74.4635 -0.989229 75.6527 -0.970944 76.5493 -1.04785C76.769 -1.06129 76.9371 -1.0897 77.0389 -1.13054C77.0587 -1.16393 77.0949 -1.22512 77.1015 -1.23625C77.0073 -1.26447 76.8918 -1.29062 76.7639 -1.31267C76.6359 -1.33473 76.499 -1.35211 76.3637 -1.36347L70.4823 -1.56039L69.4574 -1.60372C67.5854 -1.71725 65.8016 -1.76248 64.1825 -1.73747V-1.73747ZM75.7511 0.985269C76.669 1.26617 76.6722 1.26059 77.1425 1.32481C79.4112 1.59154 81.6783 1.73552 83.6741 1.73962C84.1177 1.73881 84.4942 1.7117 84.7716 1.66056C84.9144 1.65363 85.0052 1.63161 85.0244 1.5993C85.0435 1.56699 84.9894 1.52701 84.8738 1.48809L84.1439 1.29019C82.8183 1.20452 81.5118 1.13645 80.2321 1.08638C78.7422 1.02727 77.4219 1.02498 75.8773 1.0009L75.7511 0.985269ZM151.191 43.1147C152.047 43.5013 152.05 43.4957 153.482 43.5954C154.48 43.6661 155.448 43.7076 156.357 43.7186C157.468 43.7308 158.607 43.7525 159.715 43.7702C159.986 43.7826 160.215 43.7723 160.359 43.7416C160.502 43.7108 160.55 43.6616 160.492 43.6037C160.346 43.5407 160.119 43.4799 159.846 43.4309C159.574 43.382 159.272 43.3479 158.991 43.3342L158.386 43.325C157.652 43.3057 156.89 43.277 156.181 43.2728C155.721 43.2888 155.188 43.2764 154.623 43.2366C154.059 43.1967 153.479 43.1305 152.928 43.0431L151.191 43.1147ZM80.3183 -1.23198C80.5467 -1.16503 80.805 -1.10091 81.0863 -1.04131C82.1757 -0.876142 83.3287 -0.782331 84.3192 -0.778271C84.7876 -0.768039 85.2159 -0.804571 85.6927 -0.751484C86.548 -0.680545 87.3768 -0.642757 88.1345 -0.640166C88.1345 -0.640166 88.3469 -0.655656 88.4167 -0.658963L88.5618 -0.903759C88.2031 -0.960468 87.829 -1.0068 87.4568 -1.04061C86.2077 -1.10574 84.9802 -1.15027 83.7561 -1.20036C82.5319 -1.25045 82.1051 -1.27346 81.3045 -1.29497C80.9474 -1.28315 80.6171 -1.26205 80.3183 -1.23198ZM53.268 29.201L54.9027 29.702C55.4317 29.7456 55.9258 29.7534 56.31 29.7245C56.6942 29.6955 56.9473 29.6313 57.0309 29.5416C57.1655 29.4996 57.179 29.4374 57.0685 29.3681C56.958 29.2987 56.732 29.2276 56.4381 29.1696C56.1552 29.1008 55.8323 29.0392 55.4893 28.9885C55.1462 28.9378 54.7905 28.8991 54.4441 28.8748L53.268 29.201ZM66.8782 26.7063C65.809 26.6213 64.7864 26.5866 63.8885 26.6047C63.3228 26.6544 62.5563 26.6386 61.7461 26.5603C60.2727 26.4045 58.8523 26.3613 57.7848 26.44C57.7848 26.44 57.7452 26.5067 57.5642 26.5261C57.3833 26.5455 58.1009 26.5926 58.2588 26.6122C59.4165 26.66 60.5808 26.6967 61.5873 26.7139C62.2121 26.7131 62.873 26.7289 63.5587 26.761C64.5021 26.8104 65.3967 26.8264 66.2077 26.8084C66.2077 26.8084 66.5215 26.7935 66.8749 26.7118L66.8782 26.7063ZM181.059 0.609016C180.548 0.514654 179.995 0.437961 179.439 0.384697C178.884 0.331433 178.341 0.30298 177.853 0.301466C177.478 0.296542 177.175 0.321456 176.992 0.372269C176.808 0.423083 176.754 0.496896 176.839 0.582036C177.218 0.628957 177.723 0.691516 178.007 0.726706C178.992 0.723263 179.832 0.678016 181.059 0.609016ZM276.653 8.56089C276.243 8.48493 275.792 8.42685 275.351 8.39329C274.909 8.35973 274.495 8.35204 274.156 8.37109C273.982 8.37936 274.1 8.46567 274.071 8.51575C274.051 8.5271 274.051 8.54122 274.071 8.55663C274.091 8.57203 274.13 8.58817 274.183 8.60333C274.237 8.61849 274.303 8.63212 274.375 8.6428C274.447 8.65347 274.522 8.6608 274.593 8.66401C275.037 8.69674 275.457 8.70648 275.814 8.69236C276.171 8.67825 276.455 8.64073 276.64 8.58315L276.653 8.56089ZM283.058 9.64679C282.995 9.60196 282.86 9.55525 282.678 9.5152C282.497 9.47515 282.28 9.44445 282.069 9.42875C281.696 9.42664 281.357 9.43907 281.065 9.46557C280.747 9.48601 280.976 9.61579 281.404 9.69279C281.586 9.72369 281.78 9.7478 281.971 9.76319C282.162 9.77858 282.345 9.78483 282.505 9.78145C282.665 9.77806 282.797 9.76513 282.892 9.74369C282.987 9.72224 283.042 9.69288 283.052 9.65792L283.058 9.64679ZM96.9456 -0.755217C95.99 -0.915373 95.2545 -0.875082 94.4455 -0.939452C93.6364 -1.00382 93.4371 -1.01059 93.5455 -0.907591C93.6539 -0.804587 94.2085 -0.825477 94.5558 -0.782467C95.025 -0.725395 95.497 -0.692624 95.919 -0.687811C96.3411 -0.682997 96.6966 -0.706336 96.9456 -0.755217V-0.755217ZM296.071 26.3435C295.565 26.3076 295.069 26.2822 294.591 26.2677C294.528 26.2826 294.488 26.3021 294.475 26.325C294.461 26.348 294.474 26.3739 294.512 26.4013C294.512 26.4013 294.836 26.4832 295.025 26.5067C295.723 26.5871 295.757 26.4719 296.071 26.3435V26.3435ZM367.608 41.2652C367.951 41.3733 368.111 41.4468 368.385 41.4987C368.511 41.5167 368.641 41.5298 368.766 41.537C368.891 41.5442 369.007 41.5453 369.106 41.5402C369.226 41.5091 369.255 41.4614 369.185 41.4067C369.185 41.4067 368.836 41.3097 368.703 41.3052C368.324 41.2823 367.956 41.2689 367.608 41.2652V41.2652ZM80.6801 -1.6709C79.954 -1.76084 79.2594 -1.84686 78.7567 -1.74191C79.9097 -1.62897 79.9097 -1.62896 80.6801 -1.6709ZM92.4406 -0.644315C91.7074 -0.836646 91.2772 -0.8541 90.9252 -0.832001C90.8504 -0.826435 90.8009 -0.81403 90.7842 -0.796668C90.7675 -0.779307 90.7845 -0.757932 90.8326 -0.735775C90.8807 -0.713619 90.9574 -0.69189 91.0509 -0.673872C91.1445 -0.655854 91.2499 -0.642527 91.3512 -0.635913C91.7336 -0.630377 92.0982 -0.633188 92.4406 -0.644315V-0.644315ZM130.177 -0.562986C130.193 -0.590804 130.213 -0.624184 130.024 -0.647645C129.974 -0.659554 129.916 -0.669796 129.855 -0.677345C129.794 -0.684895 129.732 -0.689482 129.677 -0.690649C129.677 -0.690649 129.657 -0.657267 129.644 -0.635013L130.177 -0.562986ZM156.382 45.6208L155.96 45.6462L156.15 45.6696L156.65 45.6838L156.382 45.6208ZM304.868 9.21272C304.71 9.19317 304.552 9.17362 304.529 9.21256C304.496 9.2186 304.475 9.2273 304.469 9.23795C304.462 9.24859 304.471 9.26087 304.493 9.27376C304.493 9.27376 304.714 9.30114 304.808 9.31287L304.868 9.21272ZM280.284 9.5242C280.18 9.52197 280.087 9.52458 280.009 9.53187C280.009 9.53187 279.989 9.56525 279.989 9.56525L280.305 9.60435L280.284 9.5242ZM66.0444 17.4779C65.9225 17.4576 65.7932 17.4416 65.6656 17.431L65.5077 17.4114C65.5077 17.4114 65.6773 17.4683 65.772 17.48C65.8667 17.4917 65.9431 17.4773 66.0444 17.4779Z" fill="#DF6951"/>
</g>
</g>
<defs>
<filter id="filter0_d_1_121" x="0.507446" y="0" width="383.401" height="20" filterUnits="userSpaceOnUse" color-interpolation-filters="sRGB">
<feFlood flood-opacity="0" result="BackgroundImageFix"/>
<feColorMatrix in="SourceAlpha" type="matrix" values="0 0 0 0 0 0 0 0 0 0 0 0 0 0 0 0 0 0 127 0" result="hardAlpha"/>
<feOffset dy="4"/>
<feGaussianBlur stdDeviation="2"/>
<feComposite in2="hardAlpha" operator="out"/>
<feColorMatrix type="matrix" values="0 0 0 0 0 0 0 0 0 0 0 0 0 0 0 0 0 0 0.25 0"/>
<feBlend mode="normal" in2="BackgroundImageFix" result="effect1_dropShadow_1_121"/>
<feBlend mode="normal" in="SourceGraphic" in2="effect1_dropShadow_1_121" result="shape"/>
</filter>
</defs>
</svg>
